<svg id="Capa_1" enable-background="new 0 0 512.001 512.001" height="512" viewBox="0 0 512.001 512.001" width="512" xmlns="http://www.w3.org/2000/svg"><g><path d="m474.608 169.788h-317.764l306.936-82.243c5.335-1.43 8.501-6.913 7.071-12.247l-18.19-67.885c-.687-2.562-2.362-4.746-4.659-6.072-2.296-1.327-5.025-1.687-7.588-.999l-380.306 101.903c-2.562.687-4.746 2.362-6.072 4.659s-1.686 5.026-.999 7.588l4.591 17.131c-17.877 8.668-30.234 26.999-30.234 48.165 0 26.078 18.761 47.843 43.492 52.541v269.672c0 5.522 4.478 10 10 10h393.723c5.522 0 10-4.478 10-10v-322.213c-.001-5.523-4.479-10-10.001-10zm-341.182 20h72.039l-49.873 49.873h-64.707v-7.332c21.489-4.082 38.459-21.052 42.541-42.541zm276.306 49.873h-63.443l49.873-49.873h63.442zm-127.07 0h-63.443l49.873-49.873h63.443zm161.45-167.552-61.281 16.42-61.579-35.553 61.281-16.42zm-122.74 32.888-61.281 16.42-61.579-35.553 61.281-16.42zm-246.428 13.978 62.109-16.642 61.579 35.552-69.582 18.645c-8.667-17.877-26.999-30.234-48.165-30.234-1.326 0-2.635.065-3.937.16zm-27.551 60.813c0-18.468 15.024-33.492 33.492-33.492s33.492 15.024 33.492 33.492-15.024 33.492-33.492 33.492-33.492-15.024-33.492-33.492zm43.492 312.213v-231.934h373.723v231.934z"/><circle cx="80.885" cy="179.788" r="10"/><g><g><g><path d="m277.748 417.591c-8.284 0-15-6.716-15-15v-18.755c0-12.732 8.585-23.979 20.876-27.352 10.161-2.789 16.979-12.483 16.209-23.05-.796-10.918-9.637-19.691-20.564-20.407-11.566-.757-21.861 7.584-23.452 18.989-.143 1.02-.215 2.065-.215 3.108 0 8.284-6.716 15-15 15s-15-6.716-15-15c0-2.426.169-4.867.503-7.255 3.751-26.886 27.953-46.557 55.125-44.777 25.784 1.688 46.646 22.393 48.523 48.162 1.779 24.401-13.725 46.834-37.005 53.821v17.517c0 8.283-6.716 14.999-15 14.999z"/></g></g><circle cx="277.746" cy="453.679" r="15.002"/></g></g></svg>